<?xml version="1.0" encoding="UTF-8"?>
<svg width="49px" height="9px" viewBox="0 0 49 9" version="1.1" xmlns="http://www.w3.org/2000/svg" xmlns:xlink="http://www.w3.org/1999/xlink">
    <!-- Generator: Sketch 44.1 (41455) - http://www.bohemiancoding.com/sketch -->
    <title>Signal</title>
    <desc>Created with Sketch.</desc>
    <defs></defs>
    <g id="Page-1" stroke="none" stroke-width="1" fill="none" fill-rule="evenodd">
        <g id="MY_DAY" transform="translate(-6.000000, -7.000000)">
            <g id="_status_Bar*" transform="translate(6.000000, 5.000000)">
                <g id="Signal" transform="translate(0.000000, 2.000000)">
                    <g transform="translate(0.000000, 2.000000)" id="Shape">
                        <path d="M2.77439024,0 C4.30664634,0 5.54917683,1.23121429 5.54917683,2.75 C5.54917683,4.26878571 4.30704268,5.5 2.77439024,5.5 C1.24213415,5.5 0,4.26917857 0,2.75 C0,1.23121429 1.24253049,0 2.77439024,0 L2.77439024,0 Z" fill="#FFFFFF"></path>
                        <path d="M9.77439024,0 C11.3066463,0 12.5487805,1.23121429 12.5487805,2.75 C12.5487805,4.26878571 11.3066463,5.5 9.77439024,5.5 C8.24213415,5.5 7,4.26917857 7,2.75 C7,1.23121429 8.24213415,0 9.77439024,0 L9.77439024,0 Z" fill="#FFFFFF"></path>
                        <path d="M16.7496028,0 C18.2818589,0 19.5239931,1.23121429 19.5239931,2.75 C19.5239931,4.26878571 18.2818589,5.5 16.7496028,5.5 C15.2177431,5.5 13.9756089,4.26917857 13.9756089,2.75 C13.9752126,1.23121429 15.2173467,0 16.7496028,0 L16.7496028,0 Z" fill="#FFFFFF"></path>
                        <path d="M23.7743902,0 C25.3066463,0 26.5487805,1.23121429 26.5487805,2.75 C26.5487805,4.26878571 25.3070427,5.5 23.7743902,5.5 C22.2421341,5.5 21,4.26917857 21,2.75 C21,1.23121429 22.2421341,0 23.7743902,0 L23.7743902,0 Z" fill="#FFFFFF"></path>
                        <path d="M33.2983842,2.75 C33.2983842,1.36978204 32.1686707,0.25 30.773994,0.25 C29.3792725,0.25 28.2496399,1.36981223 28.2500001,2.75 C28.2500001,4.13055565 29.3792615,5.25 30.773994,5.25 C32.1686707,5.25 33.2983842,4.13021796 33.2983842,2.75 Z" stroke="#FFFFFF" stroke-width="0.5"></path>
                    </g>
                    <path d="M42.2413432,6.00912484 C42.9984929,6.00912484 43.6910446,6.32873517 44.2292368,6.78918436 L42.2413432,9.055 L40.255703,6.78693094 C40.7935197,6.32760846 41.4856958,6.00912484 42.2413432,6.00912484 Z M42.3198374,1.52293758 C40.4397325,1.52293758 38.7263808,2.23577001 37.4115091,3.40642265 L36.5,2.36459063 C38.0563633,0.973102655 40.0889498,0 42.3194618,0 C44.5537296,0 46.588945,0.975731647 48.1471862,2.37097532 L47.2341748,3.4120562 C45.9189276,2.238399 44.2025713,1.52293758 42.3198374,1.52293758 Z M42.2935475,4.5275 C41.1668366,4.5275 40.1373984,4.94888988 39.3430672,5.64331937 L38.3778515,4.54026939 C39.4290728,3.61148403 40.7957731,3.00456242 42.2939231,3.00456242 C43.794702,3.00456242 45.1632802,3.61336188 46.214877,4.54477623 L45.2481591,5.64632393 C44.4530767,4.95076773 43.4221363,4.5275 42.2935475,4.5275 Z" id="Wifi" fill="#FFFFFF"></path>
                </g>
            </g>
        </g>
    </g>
</svg>