<?xml version="1.0" encoding="UTF-8"?>
<svg width="12px" height="15px" viewBox="0 0 12 15" version="1.1" xmlns="http://www.w3.org/2000/svg" xmlns:xlink="http://www.w3.org/1999/xlink">
    <!-- Generator: Sketch 43.2 (39069) - http://www.bohemiancoding.com/sketch -->
    <title>Icn_Clock</title>
    <desc>Created with Sketch.</desc>
    <defs></defs>
    <g id="Page-1" stroke="none" stroke-width="1" fill="none" fill-rule="evenodd">
        <g id="Artboard" transform="translate(-63.000000, -37.000000)" fill-rule="nonzero" fill="#FFFFFF">
            <g id="Icn_Clock" transform="translate(63.000000, 37.000000)">
                <path d="M9.53553391,9.87552357 C11.485157,7.85637361 11.4863871,4.57271335 9.53553391,2.55228942 C7.58591083,0.533139455 4.41531928,0.531865479 2.46446609,2.55228942 C0.514843019,4.57143938 0.513612911,7.85509964 2.46446609,9.87552357 L6,13.5371407 L9.53553391,9.87552357 Z M1.75735931,1.819966 C4.10050506,-0.606740326 7.90426277,-0.601802467 10.2426407,1.819966 C12.5857864,4.24667233 12.5810186,8.18607852 10.2426407,10.607847 L6,15.0017875 L1.75735931,10.607847 C-0.585786437,8.18114066 -0.581018607,4.24173447 1.75735931,1.819966 Z M6,8.28522991 C7.1045695,8.28522991 8,7.35786683 8,6.21390649 C8,5.06994616 7.1045695,4.14258308 6,4.14258308 C4.8954305,4.14258308 4,5.06994616 4,6.21390649 C4,7.35786683 4.8954305,8.28522991 6,8.28522991 Z" id="Combined-Shape"></path>
            </g>
        </g>
    </g>
</svg>